<?xml version="1.0" encoding="UTF-8"?>
<svg xmlns="http://www.w3.org/2000/svg" xmlns:xlink="http://www.w3.org/1999/xlink" width="288pt" height="384pt" viewBox="0 0 288 384" version="1.1">
<g id="surface1">
<path style=" stroke:none;fill-rule:nonzero;fill:rgb(0%,0%,0%);fill-opacity:1;" d="M 90 54 C 90 24.175781 114.175781 0 144 0 C 173.824219 0 198 24.175781 198 54 C 198 83.824219 173.824219 108 144 108 C 114.175781 108 90 83.824219 90 54 Z M 280.96875 55.03125 C 271.597656 45.65625 256.402344 45.65625 247.03125 55.03125 L 182.058594 120 L 105.941406 120 L 40.96875 55.03125 C 31.597656 45.65625 16.402344 45.65625 7.03125 55.03125 C -2.34375 64.402344 -2.34375 79.597656 7.03125 88.972656 L 78 159.941406 L 78 360 C 78 373.253906 88.746094 384 102 384 L 114 384 C 127.253906 384 138 373.253906 138 360 L 138 276 L 150 276 L 150 360 C 150 373.253906 160.746094 384 174 384 L 186 384 C 199.253906 384 210 373.253906 210 360 L 210 159.941406 L 280.96875 88.96875 C 290.34375 79.597656 290.34375 64.402344 280.96875 55.03125 Z M 280.96875 55.03125 "/>
</g>
</svg>
