<?xml version="1.0" encoding="UTF-8"?>
<svg xmlns="http://www.w3.org/2000/svg" xmlns:xlink="http://www.w3.org/1999/xlink" width="187pt" height="150pt" viewBox="0 0 187 150" version="1.1">
<g id="surface1">
<path style=" stroke:none;fill-rule:nonzero;fill:rgb(0%,0%,0%);fill-opacity:1;" d="M 181.496094 15.953125 C 170.160156 11.1875 158.820312 9.375 147.480469 9.375 C 111.492188 9.371094 75.507812 27.640625 39.519531 27.640625 C 30.492188 27.640625 21.472656 26.492188 12.445312 23.617188 C 11.433594 23.296875 10.417969 23.144531 9.421875 23.144531 C 4.394531 23.144531 0 27.046875 0 32.464844 L 0 125.410156 C 0 129.109375 2.113281 132.617188 5.503906 134.042969 C 16.839844 138.8125 28.179688 140.625 39.519531 140.625 C 75.507812 140.625 111.496094 122.359375 147.484375 122.359375 C 156.511719 122.359375 165.53125 123.507812 174.554688 126.378906 C 175.570312 126.699219 176.585938 126.851562 177.578125 126.851562 C 182.609375 126.851562 187.003906 122.949219 187.003906 117.53125 L 187.003906 24.589844 C 187 20.886719 184.886719 17.382812 181.496094 15.957031 Z M 14.023438 38.734375 C 19.902344 40.210938 26.039062 40.953125 32.351562 41.351562 C 30.632812 49.960938 23.082031 56.453125 14.023438 56.453125 Z M 14.023438 122.234375 L 14.023438 108.234375 C 24.066406 108.234375 32.191406 116.222656 32.640625 126.222656 C 26.058594 125.691406 19.902344 124.375 14.023438 122.234375 Z M 93.5 103.125 C 80.589844 103.125 70.125 90.53125 70.125 75 C 70.125 59.46875 80.589844 46.875 93.5 46.875 C 106.410156 46.875 116.875 59.46875 116.875 75 C 116.875 90.535156 106.40625 103.125 93.5 103.125 Z M 172.976562 111.261719 C 167.855469 109.976562 162.539062 109.257812 157.101562 108.789062 C 158.820312 101.148438 165.136719 95.351562 172.976562 94.351562 Z M 172.976562 42.089844 C 163.949219 40.945312 156.945312 33.390625 156.667969 24.058594 C 162.378906 24.695312 167.796875 25.882812 172.976562 27.765625 Z M 172.976562 42.089844 "/>
</g>
</svg>
