<?xml version="1.0" encoding="UTF-8"?>
<svg xmlns="http://www.w3.org/2000/svg" xmlns:xlink="http://www.w3.org/1999/xlink" width="270pt" height="240pt" viewBox="0 0 270 240" version="1.1">
<g id="surface1">
<path style=" stroke:none;fill-rule:nonzero;fill:rgb(0%,0%,0%);fill-opacity:1;" d="M 139.714844 105 L 210 130.101562 L 210 232.5 C 210 236.644531 206.644531 240 202.5 240 L 172.5 240 C 168.355469 240 165 236.644531 165 232.5 L 165 180 L 90 180 L 90 232.5 C 90 236.644531 86.644531 240 82.5 240 L 52.5 240 C 48.355469 240 45 236.644531 45 232.5 L 45 132.230469 C 27.582031 126.019531 15 109.527344 15 90 C 15 81.714844 21.714844 75 30 75 C 38.285156 75 45 81.714844 45 90 C 45.015625 98.277344 51.722656 104.984375 60 105 Z M 255 52.5 L 255 67.5 C 255 84.066406 241.566406 97.5 225 97.5 L 210 97.5 L 210 114.175781 L 150 92.75 L 150 22.5 C 150 15.820312 158.070312 12.472656 162.800781 17.195312 L 175.589844 30 L 200.726562 30 C 205.84375 30 211.859375 33.714844 214.144531 38.292969 L 217.5 45 L 247.5 45 C 251.644531 45 255 48.355469 255 52.5 Z M 202.5 52.5 C 202.5 48.355469 199.144531 45 195 45 C 190.855469 45 187.5 48.355469 187.5 52.5 C 187.5 56.644531 190.855469 60 195 60 C 199.144531 60 202.5 56.644531 202.5 52.5 Z M 202.5 52.5 "/>
</g>
</svg>
